<svg xmlns="http://www.w3.org/2000/svg" xmlns:xlink="http://www.w3.org/1999/xlink" width="500" zoomAndPan="magnify" viewBox="0 0 375 374.999991" height="500" preserveAspectRatio="xMidYMid meet" version="1.0"><defs><g/><clipPath id="0bb639ed02"><path d="M 95.042969 154 L 122 154 L 122 176 L 95.042969 176 Z M 95.042969 154 " clip-rule="nonzero"/></clipPath><clipPath id="5250d42190"><path d="M 79 159 L 96 159 L 96 175 L 79 175 Z M 79 159 " clip-rule="nonzero"/></clipPath><clipPath id="c0bea4bfa6"><path d="M 79.265625 157.527344 L 97.179688 159.265625 L 95.515625 176.4375 L 77.601562 174.699219 Z M 79.265625 157.527344 " clip-rule="nonzero"/></clipPath><clipPath id="bd9331c140"><path d="M 97.0625 159.253906 L 79.148438 157.519531 L 77.484375 174.6875 L 95.398438 176.425781 Z M 97.0625 159.253906 " clip-rule="nonzero"/></clipPath><clipPath id="5e7d87668c"><path d="M 320.460938 165.46875 L 328.617188 165.46875 L 328.617188 168.1875 L 320.460938 168.1875 Z M 320.460938 165.46875 " clip-rule="nonzero"/></clipPath><clipPath id="a58d8eecd2"><path d="M 321.820312 165.46875 L 327.257812 165.46875 C 328.007812 165.46875 328.617188 166.078125 328.617188 166.828125 C 328.617188 167.578125 328.007812 168.1875 327.257812 168.1875 L 321.820312 168.1875 C 321.066406 168.1875 320.460938 167.578125 320.460938 166.828125 C 320.460938 166.078125 321.066406 165.46875 321.820312 165.46875 Z M 321.820312 165.46875 " clip-rule="nonzero"/></clipPath><clipPath id="ce463afd2f"><path d="M 320 165 L 329 165 L 329 168.8125 L 320 168.8125 Z M 320 165 " clip-rule="nonzero"/></clipPath><clipPath id="dd48d27028"><path d="M 331 159 L 339 159 L 339 168.8125 L 331 168.8125 Z M 331 159 " clip-rule="nonzero"/></clipPath><clipPath id="dfc7194de5"><path d="M 346 152.3125 L 348.574219 152.3125 L 348.574219 155 L 346 155 Z M 346 152.3125 " clip-rule="nonzero"/></clipPath><clipPath id="776e76534c"><path d="M 346 155 L 348.574219 155 L 348.574219 158 L 346 158 Z M 346 155 " clip-rule="nonzero"/></clipPath><clipPath id="9afb9b89aa"><path d="M 346 158 L 348.574219 158 L 348.574219 161 L 346 161 Z M 346 158 " clip-rule="nonzero"/></clipPath></defs><g clip-path="url(#0bb639ed02)"><path fill="#368f0f" d="M 116.058594 156.882812 C 103.300781 156.824219 96.453125 162.78125 95.867188 175.109375 C 95.859375 175.265625 95.632812 175.273438 95.613281 175.121094 C 95.042969 171.089844 95.152344 167.421875 96.175781 164.230469 C 99.550781 153.695312 112.421875 152.316406 121.554688 155.648438 C 122.011719 155.816406 122.101562 156.402344 121.726562 156.703125 C 114.601562 162.402344 115.570312 177.949219 98.230469 171.210938 C 100.9375 162.792969 106.492188 157.578125 116.058594 156.882812 " fill-opacity="1" fill-rule="evenodd"/></g><g clip-path="url(#5250d42190)"><g clip-path="url(#c0bea4bfa6)"><g clip-path="url(#bd9331c140)"><path fill="#368f0f" d="M 82.949219 160.921875 C 91.34375 161.699219 95.46875 166.050781 95.066406 174.199219 C 95.0625 174.300781 95.210938 174.324219 95.234375 174.222656 C 95.867188 171.609375 96.027344 169.1875 95.558594 167.023438 C 94.011719 159.878906 85.632812 158.148438 79.410156 159.757812 C 79.101562 159.839844 79.003906 160.21875 79.234375 160.441406 C 83.554688 164.644531 81.925781 174.808594 93.761719 171.484375 C 92.519531 165.773438 89.199219 161.988281 82.949219 160.921875 " fill-opacity="1" fill-rule="evenodd"/></g></g></g><path stroke-linecap="butt" transform="matrix(0.761385, 0, 0, 0.761385, 13.367845, 151.592935)" fill="none" stroke-linejoin="miter" d="M 14.446501 97.885037 C 17.960863 106.324637 24.240541 101.507139 25.646286 94.914503 C 26.713421 89.994396 26.82116 84.85881 26.923769 79.856615 C 27.026378 76.860429 26.48255 73.346067 27.134118 70.349881 C 27.888295 66.830388 27.677946 67.897523 31.089699 66.62517 C 40.262954 63.208286 48.676902 56.071822 51.775697 46.565088 C 57.013893 30.019368 39.949997 22.544293 26.37481 27.361792 C 25.410285 24.262996 21.793313 20.953852 18.273821 22.544293 C 14.54911 24.160387 13.374235 31.086502 12.727798 34.605995 C 10.901356 45.600562 10.691007 57.138957 11.137357 68.107872 C 11.239966 74.100244 11.763272 79.964355 12.41484 85.823336 C 12.933016 89.681438 12.830407 94.262935 14.446501 97.885037 Z M 27.549685 50.941366 L 27.549685 49.976841 C 27.677946 46.25213 26.82116 40.803586 29.370997 38.356358 C 30.961438 36.848004 34.819541 35.360172 35.784066 37.915139 C 37.164159 41.429501 29.370997 49.114924 27.549685 50.941366 Z M 66.084538 66.204473 C 72.153868 67.276738 79.213375 65.450295 83.692263 60.971408 C 87.422104 57.246697 89.243416 44.11273 80.28051 47.94518 C 78.038501 48.909706 66.500105 60.65845 67.049064 51.043976 C 67.356892 45.492822 72.256477 46.667697 76.11458 45.91352 C 79.9419 45.179865 84.318178 44.010121 87.001407 41.013934 C 92.757778 34.498256 87.001407 25.43274 79.839291 23.29847 C 73.010654 21.26681 65.120013 24.160387 60.430776 29.162581 C 51.026651 39.084883 49.225861 63.208286 66.084538 66.204473 Z M 73.118393 39.192623 C 74.288137 36.637656 76.740495 35.462781 79.423724 35.883479 C 80.383119 38.120357 75.252663 39.9468 73.118393 39.192623 Z M 122.427204 70.893709 C 128.188706 72.068584 127.013832 63.003068 126.911223 59.796533 L 126.259655 39.736451 C 126.049306 33.53886 124.330603 31.39946 121.021459 26.607614 C 113.469428 15.715657 100.858768 22.123596 94.994657 31.296851 C 90.202811 38.879665 88.068542 50.392408 92.20882 58.832007 C 97.759973 69.934314 111.642986 65.660644 117.712315 57.349306 C 117.820055 60.761059 117.609706 69.826574 122.427204 70.893709 Z M 108.857149 46.770306 C 105.676266 46.667697 106.096963 43.799772 106.85114 41.562893 C 107.682274 39.295232 110.160284 35.360172 112.397163 34.498256 C 115.814047 33.118163 116.881182 36.324698 115.475437 39.423493 C 114.741781 41.326892 111.437768 46.878045 108.857149 46.770306 Z M 138.839532 70.688491 C 144.729296 72.171193 152.178718 67.692305 155.072295 62.556718 C 157.858132 57.975221 156.554996 42.604376 149.310793 52.424068 C 146.966174 53.937553 141.62537 63.418635 139.178143 56.38478 C 136.936133 49.976841 146.524955 37.053223 151.552802 35.257563 C 153.481853 43.255944 164.240419 40.598368 161.269885 32.805205 C 160.515708 25.017173 152.076108 22.544293 145.45782 23.847429 C 138.213617 25.330131 133.18577 29.809019 130.112627 36.535047 C 125.838957 45.91352 126.464873 67.589696 138.839532 70.688491 Z M 198.711952 83.817327 C 201.497789 81.447057 200.092044 74.515811 200.092044 71.519625 C 199.881696 65.137338 200.322915 54.902078 196.680291 49.222664 C 191.570357 41.562893 183.546324 48.386399 179.067437 52.865287 C 180.134571 45.600562 180.370572 38.120357 180.786139 30.773545 C 181.201706 23.40108 184.305632 14.884523 182.920409 7.614667 C 181.648056 1.647947 174.275591 -0.0707558 170.756098 5.372658 C 167.549563 10.272243 166.692777 17.747317 165.728251 23.40108 C 163.486242 35.67313 160.828666 51.043976 163.593982 63.316026 C 166.897995 78.476523 179.924223 66.62517 186.229553 61.074017 C 191.231747 66.101863 188.681911 74.623551 191.678097 80.508183 C 193.05819 83.165759 195.715766 86.264555 198.711952 83.817327 Z M 239.263075 115.70311 C 242.572219 111.326831 242.02326 105.57046 241.818042 100.440004 C 241.505084 95.124852 241.920651 89.573699 241.818042 84.130285 C 241.818042 72.068584 241.505084 59.904273 240.643167 47.837441 C 240.437949 43.907512 241.402475 35.462781 237.231414 33.118163 C 233.717052 31.194242 231.264694 34.293037 229.233034 36.848004 C 227.411722 39.192623 218.448815 59.380966 216.001588 47.837441 C 215.037062 43.255944 216.104197 37.70479 217.068723 33.225903 C 218.033248 29.162581 221.963178 22.775164 217.48429 19.57376 C 208.105816 12.745123 202.554663 30.670936 201.590138 36.427307 C 200.317785 44.738645 201.046309 55.004687 205.212239 62.454109 C 209.696258 70.688491 219.618559 73.135718 226.785806 66.312212 C 224.646406 73.448676 225.610932 123.496273 239.263075 115.70311 Z M 277.874885 70.688491 C 283.759518 72.171193 291.20894 67.692305 294.102517 62.556718 C 296.888354 57.975221 295.590349 42.604376 288.346145 52.424068 C 286.001527 53.937553 280.660723 63.418635 278.213495 56.38478 C 275.971486 49.976841 285.560308 37.053223 290.588155 35.257563 C 292.512076 43.255944 303.275772 40.598368 300.305238 32.805205 C 299.545931 25.017173 291.106331 22.544293 284.488043 23.847429 C 277.24897 25.330131 272.221123 29.809019 269.142849 36.535047 C 264.87431 45.91352 265.500226 67.589696 277.874885 70.688491 Z M 307.75466 85.925945 C 313.203204 92.128666 317.892441 82.852802 317.682092 78.266174 C 317.163916 64.172812 314.480687 45.390213 317.682092 29.501192 C 318.749227 24.160387 324.715947 5.0597 317.579483 2.171253 C 302.962814 -3.066942 302.860205 26.710224 302.311246 33.53886 C 301.141502 48.489009 300.618196 78.035304 307.75466 85.925945 Z M 336.464691 66.204473 C 342.53915 67.276738 349.598657 65.450295 354.077545 60.971408 C 357.802256 57.246697 359.628699 44.11273 350.665792 47.94518 C 348.423783 48.909706 336.885388 60.65845 337.429216 51.043976 C 337.742174 45.492822 342.641759 46.667697 346.494732 45.91352 C 350.327182 45.179865 354.703461 44.010121 357.386689 41.013934 C 363.143061 34.498256 357.386689 25.43274 350.224573 23.29847 C 343.395936 21.26681 335.505295 24.160387 330.810928 29.162581 C 321.406803 39.084883 319.611143 63.208286 336.464691 66.204473 Z M 343.498546 39.192623 C 344.67342 36.637656 347.120647 35.462781 349.803876 35.883479 C 350.768401 38.120357 345.637946 39.9468 343.498546 39.192623 Z M 392.812487 70.893709 C 398.568858 72.068584 397.399114 63.003068 397.296505 59.796533 L 396.644937 39.736451 C 396.434589 33.53886 394.715886 31.39946 391.406742 26.607614 C 383.849581 15.715657 371.244051 22.123596 365.37994 31.296851 C 360.588094 38.879665 358.448694 50.392408 362.594102 58.832007 C 368.140125 69.934314 382.028269 65.660644 388.097598 57.349306 C 388.200207 60.761059 387.994989 69.826574 392.812487 70.893709 Z M 379.242431 46.770306 C 376.061549 46.667697 376.477116 43.799772 377.236423 41.562893 C 378.067557 39.295232 380.540437 35.360172 382.782446 34.498256 C 386.194199 33.118163 387.266464 36.324698 385.855589 39.423493 C 385.127064 41.326892 381.81792 46.878045 379.242431 46.770306 Z M 437.934846 78.373914 C 443.378259 84.992202 446.477055 77.722346 446.477055 72.381541 C 446.477055 61.622975 445.620269 48.150398 440.931032 38.120357 C 435.16953 25.853437 422.564 28.639275 414.144922 36.848004 C 414.042313 31.84581 412.32361 16.890531 404.976798 25.017173 C 400.05156 30.332325 398.881816 39.633842 398.461119 46.565088 C 398.0199 53.075636 397.393984 63.316026 402.396178 68.446482 C 409.353076 75.582946 412.533959 65.239947 412.76483 59.591315 C 412.76483 55.630603 412.32361 54.25051 415.422406 51.356933 C 417.664415 49.114924 420.321991 46.770306 423.631135 46.457348 C 429.515768 45.91352 430.352032 51.592934 431.208818 56.071822 C 432.486302 62.895329 433.245609 72.822761 437.934846 78.373914 Z M 437.934846 78.373914 " stroke="#ffffff" stroke-width="8.003325" stroke-opacity="1" stroke-miterlimit="4"/><g fill="#eda27c" fill-opacity="1"><g transform="translate(20.458238, 205.651241)"><g><path d="M 3.898438 20.472656 C 6.582031 26.894531 11.375 23.238281 12.429688 18.199219 C 13.242188 14.460938 13.324219 10.5625 13.40625 6.742188 C 13.488281 4.46875 13.082031 1.789062 13.566406 -0.488281 C 14.136719 -3.167969 13.972656 -2.355469 16.574219 -3.332031 C 23.5625 -5.929688 29.980469 -11.375 32.335938 -18.605469 C 36.316406 -31.199219 23.316406 -36.886719 13 -33.230469 C 12.269531 -35.585938 9.507812 -38.105469 6.824219 -36.886719 C 3.980469 -35.667969 3.085938 -30.386719 2.601562 -27.707031 C 1.21875 -19.335938 1.054688 -10.5625 1.382812 -2.195312 C 1.460938 2.355469 1.867188 6.824219 2.355469 11.292969 C 2.761719 14.21875 2.679688 17.710938 3.898438 20.472656 Z M 13.894531 -15.273438 L 13.894531 -16.003906 C 13.972656 -18.847656 13.324219 -22.992188 15.273438 -24.863281 C 16.492188 -26 19.417969 -27.136719 20.148438 -25.1875 C 21.207031 -22.503906 15.273438 -16.65625 13.894531 -15.273438 Z M 13.894531 -15.273438 "/></g></g></g><g fill="#eda27c" fill-opacity="1"><g transform="translate(52.792431, 205.651241)"><g><path d="M 10.886719 -3.65625 C 15.519531 -2.84375 20.878906 -4.226562 24.292969 -7.636719 C 27.136719 -10.480469 28.519531 -20.472656 21.691406 -17.550781 C 19.988281 -16.816406 11.210938 -7.882812 11.617188 -15.191406 C 11.863281 -19.417969 15.597656 -18.523438 18.523438 -19.09375 C 21.449219 -19.660156 24.78125 -20.554688 26.8125 -22.832031 C 31.199219 -27.785156 26.8125 -34.691406 21.367188 -36.316406 C 16.167969 -37.859375 10.15625 -35.667969 6.582031 -31.847656 C -0.570312 -24.292969 -1.949219 -5.929688 10.886719 -3.65625 Z M 16.25 -24.210938 C 17.144531 -26.160156 19.011719 -27.054688 21.042969 -26.730469 C 21.773438 -25.023438 17.875 -23.644531 16.25 -24.210938 Z M 16.25 -24.210938 "/></g></g></g><g fill="#eda27c" fill-opacity="1"><g transform="translate(80.65831, 205.651241)"><g><path d="M 25.917969 -0.0820312 C 30.304688 0.8125 29.410156 -6.09375 29.332031 -8.53125 L 28.84375 -23.804688 C 28.679688 -28.519531 27.378906 -30.144531 24.863281 -33.800781 C 19.09375 -42.085938 9.507812 -37.210938 5.039062 -30.222656 C 1.382812 -24.457031 -0.242188 -15.679688 2.925781 -9.261719 C 7.148438 -0.8125 17.710938 -4.0625 22.34375 -10.398438 C 22.425781 -7.800781 22.261719 -0.894531 25.917969 -0.0820312 Z M 15.597656 -18.441406 C 13.160156 -18.523438 13.488281 -20.71875 14.054688 -22.425781 C 14.707031 -24.128906 16.574219 -27.136719 18.28125 -27.785156 C 20.878906 -28.84375 21.691406 -26.40625 20.636719 -24.050781 C 20.066406 -22.585938 17.550781 -18.363281 15.597656 -18.441406 Z M 15.597656 -18.441406 "/></g></g></g><g fill="#eda27c" fill-opacity="1"><g transform="translate(109.417854, 205.651241)"><g><path d="M 9.667969 -0.242188 C 14.136719 0.894531 19.824219 -2.519531 22.019531 -6.417969 C 24.128906 -9.914062 23.15625 -21.613281 17.628906 -14.136719 C 15.84375 -13 11.78125 -5.769531 9.914062 -11.132812 C 8.207031 -16.003906 15.519531 -25.835938 19.335938 -27.21875 C 20.800781 -21.125 29.003906 -23.15625 26.730469 -29.085938 C 26.160156 -35.019531 19.742188 -36.886719 14.707031 -35.910156 C 9.179688 -34.773438 5.363281 -31.363281 3.007812 -26.242188 C -0.242188 -19.09375 0.242188 -2.601562 9.667969 -0.242188 Z M 9.667969 -0.242188 "/></g></g></g><g fill="#eda27c" fill-opacity="1"><g transform="translate(135.821376, 205.651241)"><g><path d="M 28.84375 9.75 C 30.957031 7.960938 29.898438 2.679688 29.898438 0.40625 C 29.738281 -4.46875 30.0625 -12.269531 27.300781 -16.574219 C 23.398438 -22.425781 17.304688 -17.222656 13.894531 -13.8125 C 14.707031 -19.335938 14.867188 -25.023438 15.191406 -30.628906 C 15.519531 -36.234375 17.875 -42.734375 16.816406 -48.261719 C 15.84375 -52.8125 10.238281 -54.109375 7.554688 -49.96875 C 5.117188 -46.230469 4.46875 -40.542969 3.738281 -36.234375 C 2.03125 -26.894531 0 -15.191406 2.113281 -5.851562 C 4.632812 5.6875 14.542969 -3.332031 19.335938 -7.554688 C 23.15625 -3.738281 21.207031 2.761719 23.480469 7.230469 C 24.535156 9.261719 26.566406 11.617188 28.84375 9.75 Z M 28.84375 9.75 "/></g></g></g><g fill="#eda27c" fill-opacity="1"><g transform="translate(165.230855, 205.651241)"><g><path d="M 30.304688 34.042969 C 32.824219 30.710938 32.417969 26.324219 32.253906 22.425781 C 32.011719 18.363281 32.335938 14.136719 32.253906 9.992188 C 32.253906 0.8125 32.011719 -8.449219 31.363281 -17.628906 C 31.199219 -20.636719 31.929688 -27.054688 28.761719 -28.84375 C 26.082031 -30.304688 24.210938 -27.949219 22.667969 -26 C 21.285156 -24.210938 14.460938 -8.855469 12.59375 -17.628906 C 11.863281 -21.125 12.675781 -25.347656 13.40625 -28.761719 C 14.136719 -31.847656 17.144531 -36.722656 13.730469 -39.160156 C 6.582031 -44.359375 2.355469 -30.710938 1.625 -26.324219 C 0.648438 -19.988281 1.21875 -12.1875 4.386719 -6.5 C 7.800781 -0.242188 15.355469 1.625 20.800781 -3.574219 C 19.175781 1.867188 19.90625 39.972656 30.304688 34.042969 Z M 30.304688 34.042969 "/></g></g></g><g fill="#eda27c" fill-opacity="1"><g transform="translate(196.915112, 205.651241)"><g/></g></g><g fill="#eda27c" fill-opacity="1"><g transform="translate(215.275673, 205.651241)"><g><path d="M 9.667969 -0.242188 C 14.136719 0.894531 19.824219 -2.519531 22.019531 -6.417969 C 24.128906 -9.914062 23.15625 -21.613281 17.628906 -14.136719 C 15.84375 -13 11.78125 -5.769531 9.914062 -11.132812 C 8.207031 -16.003906 15.519531 -25.835938 19.335938 -27.21875 C 20.800781 -21.125 29.003906 -23.15625 26.730469 -29.085938 C 26.160156 -35.019531 19.742188 -36.886719 14.707031 -35.910156 C 9.179688 -34.773438 5.363281 -31.363281 3.007812 -26.242188 C -0.242188 -19.09375 0.242188 -2.601562 9.667969 -0.242188 Z M 9.667969 -0.242188 "/></g></g></g><g fill="#eda27c" fill-opacity="1"><g transform="translate(241.679195, 205.651241)"><g><path d="M 6.011719 11.375 C 10.15625 16.085938 13.730469 9.019531 13.566406 5.523438 C 13.160156 -5.199219 11.132812 -19.5 13.566406 -31.605469 C 14.378906 -35.667969 18.929688 -50.210938 13.488281 -52.40625 C 2.355469 -56.386719 2.273438 -33.71875 1.867188 -28.519531 C 0.976562 -17.144531 0.570312 5.363281 6.011719 11.375 Z M 6.011719 11.375 "/></g></g></g><g fill="#eda27c" fill-opacity="1"><g transform="translate(258.658643, 205.651241)"><g><path d="M 10.886719 -3.65625 C 15.519531 -2.84375 20.878906 -4.226562 24.292969 -7.636719 C 27.136719 -10.480469 28.519531 -20.472656 21.691406 -17.550781 C 19.988281 -16.816406 11.210938 -7.882812 11.617188 -15.191406 C 11.863281 -19.417969 15.597656 -18.523438 18.523438 -19.09375 C 21.449219 -19.660156 24.78125 -20.554688 26.8125 -22.832031 C 31.199219 -27.785156 26.8125 -34.691406 21.367188 -36.316406 C 16.167969 -37.859375 10.15625 -35.667969 6.582031 -31.847656 C -0.570312 -24.292969 -1.949219 -5.929688 10.886719 -3.65625 Z M 16.25 -24.210938 C 17.144531 -26.160156 19.011719 -27.054688 21.042969 -26.730469 C 21.773438 -25.023438 17.875 -23.644531 16.25 -24.210938 Z M 16.25 -24.210938 "/></g></g></g><g fill="#eda27c" fill-opacity="1"><g transform="translate(286.524511, 205.651241)"><g><path d="M 25.917969 -0.0820312 C 30.304688 0.8125 29.410156 -6.09375 29.332031 -8.53125 L 28.84375 -23.804688 C 28.679688 -28.519531 27.378906 -30.144531 24.863281 -33.800781 C 19.09375 -42.085938 9.507812 -37.210938 5.039062 -30.222656 C 1.382812 -24.457031 -0.242188 -15.679688 2.925781 -9.261719 C 7.148438 -0.8125 17.710938 -4.0625 22.34375 -10.398438 C 22.425781 -7.800781 22.261719 -0.894531 25.917969 -0.0820312 Z M 15.597656 -18.441406 C 13.160156 -18.523438 13.488281 -20.71875 14.054688 -22.425781 C 14.707031 -24.128906 16.574219 -27.136719 18.28125 -27.785156 C 20.878906 -28.84375 21.691406 -26.40625 20.636719 -24.050781 C 20.066406 -22.585938 17.550781 -18.363281 15.597656 -18.441406 Z M 15.597656 -18.441406 "/></g></g></g><g fill="#eda27c" fill-opacity="1"><g transform="translate(315.284066, 205.651241)"><g><path d="M 31.523438 5.605469 C 35.667969 10.644531 38.023438 5.117188 38.023438 1.054688 C 38.023438 -7.148438 37.375 -17.386719 33.800781 -25.023438 C 29.410156 -34.367188 19.824219 -32.253906 13.40625 -26 C 13.324219 -29.816406 12.023438 -41.191406 6.417969 -35.019531 C 2.679688 -30.957031 1.789062 -23.886719 1.460938 -18.605469 C 1.136719 -13.648438 0.648438 -5.851562 4.46875 -1.949219 C 9.75 3.492188 12.1875 -4.386719 12.347656 -8.695312 C 12.347656 -11.699219 12.023438 -12.753906 14.378906 -14.949219 C 16.085938 -16.65625 18.117188 -18.441406 20.636719 -18.6875 C 25.105469 -19.09375 25.753906 -14.785156 26.40625 -11.375 C 27.378906 -6.175781 27.949219 1.382812 31.523438 5.605469 Z M 31.523438 5.605469 "/></g></g></g><g clip-path="url(#5e7d87668c)"><g clip-path="url(#a58d8eecd2)"><path fill="#ffffff" d="M 320.460938 165.46875 L 328.617188 165.46875 L 328.617188 168.1875 L 320.460938 168.1875 Z M 320.460938 165.46875 " fill-opacity="1" fill-rule="nonzero"/></g></g><g clip-path="url(#ce463afd2f)"><path fill="#eda27c" d="M 328.023438 165.492188 L 320.707031 165.492188 C 320.324219 165.492188 320.011719 165.800781 320.011719 166.1875 L 320.011719 167.605469 C 320.011719 167.988281 320.324219 168.300781 320.707031 168.300781 L 328.023438 168.300781 C 328.40625 168.300781 328.71875 167.988281 328.71875 167.605469 L 328.71875 166.1875 C 328.71875 165.800781 328.40625 165.492188 328.023438 165.492188 Z M 321.5625 167.4375 C 321.5625 167.558594 321.46875 167.652344 321.351562 167.652344 L 320.855469 167.652344 C 320.738281 167.652344 320.644531 167.558594 320.644531 167.4375 L 320.644531 166.351562 C 320.644531 166.234375 320.738281 166.136719 320.855469 166.136719 L 321.351562 166.136719 C 321.46875 166.136719 321.5625 166.234375 321.5625 166.351562 Z M 323.191406 167.4375 C 323.191406 167.558594 323.097656 167.652344 322.976562 167.652344 L 322.484375 167.652344 C 322.367188 167.652344 322.269531 167.558594 322.269531 167.4375 L 322.269531 166.351562 C 322.269531 166.234375 322.367188 166.136719 322.484375 166.136719 L 322.976562 166.136719 C 323.097656 166.136719 323.191406 166.234375 323.191406 166.351562 Z M 324.820312 167.4375 C 324.820312 167.558594 324.726562 167.652344 324.609375 167.652344 L 324.113281 167.652344 C 323.996094 167.652344 323.902344 167.558594 323.902344 167.4375 L 323.902344 166.351562 C 323.902344 166.234375 323.996094 166.136719 324.113281 166.136719 L 324.609375 166.136719 C 324.726562 166.136719 324.820312 166.234375 324.820312 166.351562 Z M 326.453125 167.4375 C 326.453125 167.558594 326.359375 167.652344 326.242188 167.652344 L 325.746094 167.652344 C 325.628906 167.652344 325.535156 167.558594 325.535156 167.4375 L 325.535156 166.351562 C 325.535156 166.234375 325.628906 166.136719 325.746094 166.136719 L 326.242188 166.136719 C 326.359375 166.136719 326.453125 166.234375 326.453125 166.351562 Z M 328.085938 167.433594 C 328.085938 167.550781 327.992188 167.648438 327.875 167.648438 L 327.378906 167.648438 C 327.261719 167.648438 327.164062 167.550781 327.164062 167.433594 L 327.164062 166.34375 C 327.164062 166.226562 327.261719 166.132812 327.378906 166.132812 L 327.875 166.132812 C 327.992188 166.132812 328.085938 166.226562 328.085938 166.34375 Z M 328.085938 167.433594 " fill-opacity="1" fill-rule="nonzero"/></g><path fill="#eda27c" d="M 321.589844 164.679688 L 327 164.679688 C 327.28125 164.679688 327.539062 164.507812 327.644531 164.246094 C 328.394531 162.40625 329.144531 160.570312 329.890625 158.730469 C 330 158.46875 330.253906 158.296875 330.535156 158.296875 C 332.273438 158.292969 334.015625 158.285156 335.753906 158.28125 L 335.753906 154.632812 L 323.179688 154.632812 C 322.996094 154.632812 322.820312 154.707031 322.691406 154.832031 C 320.453125 157.03125 318.214844 159.226562 315.976562 161.425781 C 315.53125 161.859375 315.839844 162.617188 316.464844 162.617188 C 317.816406 162.617188 319.335938 162.613281 320.195312 162.613281 C 320.578125 162.613281 320.886719 162.921875 320.890625 163.304688 C 320.890625 163.519531 320.894531 163.757812 320.894531 163.984375 C 320.894531 164.371094 321.207031 164.679688 321.589844 164.679688 Z M 321.589844 164.679688 " fill-opacity="1" fill-rule="nonzero"/><path fill="#eda27c" d="M 336.632812 154.632812 L 338.371094 154.632812 C 338.871094 154.632812 339.28125 155.042969 339.28125 155.546875 L 339.28125 157.359375 C 339.28125 157.867188 338.871094 158.277344 338.363281 158.277344 L 336.632812 158.277344 Z M 336.632812 154.632812 " fill-opacity="1" fill-rule="nonzero"/><g clip-path="url(#dd48d27028)"><path fill="#eda27c" d="M 338.234375 167.929688 L 338.222656 167.9375 C 338.039062 168.050781 337.808594 168.058594 337.613281 167.957031 C 336.449219 167.335938 334.429688 166.027344 332.902344 163.601562 C 331.789062 161.835938 331.355469 160.148438 331.171875 159.0625 L 335.070312 159.0625 C 335.171875 160.140625 335.4375 161.664062 336.152344 163.359375 C 336.820312 164.941406 337.667969 166.152344 338.382812 167.007812 C 338.625 167.296875 338.554688 167.734375 338.234375 167.929688 Z M 338.234375 167.929688 " fill-opacity="1" fill-rule="nonzero"/></g><g clip-path="url(#dfc7194de5)"><path fill="#eda27c" d="M 348.746094 153.480469 C 348.746094 153.632812 348.714844 153.78125 348.65625 153.921875 C 348.597656 154.0625 348.515625 154.1875 348.40625 154.296875 C 348.300781 154.40625 348.175781 154.488281 348.035156 154.546875 C 347.894531 154.605469 347.746094 154.632812 347.59375 154.632812 C 347.441406 154.632812 347.292969 154.605469 347.152344 154.546875 C 347.011719 154.488281 346.886719 154.40625 346.777344 154.296875 C 346.671875 154.1875 346.585938 154.0625 346.527344 153.921875 C 346.46875 153.78125 346.441406 153.632812 346.441406 153.480469 C 346.441406 153.328125 346.46875 153.183594 346.527344 153.039062 C 346.585938 152.898438 346.671875 152.773438 346.777344 152.667969 C 346.886719 152.558594 347.011719 152.476562 347.152344 152.417969 C 347.292969 152.359375 347.441406 152.328125 347.59375 152.328125 C 347.746094 152.328125 347.894531 152.359375 348.035156 152.417969 C 348.175781 152.476562 348.300781 152.558594 348.40625 152.667969 C 348.515625 152.773438 348.597656 152.898438 348.65625 153.039062 C 348.714844 153.183594 348.746094 153.328125 348.746094 153.480469 Z M 348.746094 153.480469 " fill-opacity="1" fill-rule="nonzero"/></g><g clip-path="url(#776e76534c)"><path fill="#eda27c" d="M 347.777344 155.316406 C 347.929688 155.34375 348.070312 155.394531 348.199219 155.476562 C 348.328125 155.554688 348.4375 155.65625 348.527344 155.78125 C 348.617188 155.90625 348.679688 156.042969 348.714844 156.191406 C 348.75 156.339844 348.753906 156.488281 348.730469 156.640625 C 348.707031 156.789062 348.652344 156.929688 348.574219 157.0625 C 348.492188 157.191406 348.390625 157.300781 348.265625 157.390625 C 348.144531 157.480469 348.007812 157.542969 347.859375 157.578125 C 347.710938 157.613281 347.558594 157.617188 347.410156 157.59375 C 347.257812 157.566406 347.117188 157.515625 346.988281 157.433594 C 346.855469 157.355469 346.746094 157.253906 346.660156 157.128906 C 346.570312 157.003906 346.507812 156.867188 346.472656 156.71875 C 346.4375 156.570312 346.429688 156.421875 346.457031 156.269531 C 346.480469 156.121094 346.53125 155.980469 346.613281 155.851562 C 346.691406 155.71875 346.796875 155.609375 346.917969 155.519531 C 347.042969 155.429688 347.179688 155.371094 347.328125 155.335938 C 347.476562 155.300781 347.625 155.292969 347.777344 155.316406 Z M 347.777344 155.316406 " fill-opacity="1" fill-rule="nonzero"/></g><g clip-path="url(#9afb9b89aa)"><path fill="#eda27c" d="M 348.746094 159.472656 C 348.746094 159.625 348.714844 159.773438 348.65625 159.914062 C 348.597656 160.054688 348.515625 160.179688 348.40625 160.289062 C 348.300781 160.394531 348.175781 160.480469 348.035156 160.539062 C 347.894531 160.597656 347.746094 160.625 347.59375 160.625 C 347.441406 160.625 347.292969 160.597656 347.152344 160.539062 C 347.011719 160.480469 346.886719 160.394531 346.777344 160.289062 C 346.671875 160.179688 346.585938 160.054688 346.527344 159.914062 C 346.46875 159.773438 346.441406 159.625 346.441406 159.472656 C 346.441406 159.320312 346.46875 159.175781 346.527344 159.03125 C 346.585938 158.890625 346.671875 158.765625 346.777344 158.660156 C 346.886719 158.550781 347.011719 158.46875 347.152344 158.410156 C 347.292969 158.351562 347.441406 158.320312 347.59375 158.320312 C 347.746094 158.320312 347.894531 158.351562 348.035156 158.410156 C 348.175781 158.46875 348.300781 158.550781 348.40625 158.660156 C 348.515625 158.765625 348.597656 158.890625 348.65625 159.03125 C 348.714844 159.175781 348.746094 159.320312 348.746094 159.472656 Z M 348.746094 159.472656 " fill-opacity="1" fill-rule="nonzero"/></g><path fill="#eda27c" d="M 345.957031 154.945312 C 345.957031 155.097656 345.929688 155.246094 345.871094 155.386719 C 345.8125 155.527344 345.726562 155.652344 345.621094 155.761719 C 345.511719 155.867188 345.386719 155.953125 345.246094 156.011719 C 345.105469 156.070312 344.957031 156.097656 344.804688 156.097656 C 344.652344 156.097656 344.503906 156.070312 344.363281 156.011719 C 344.222656 155.953125 344.097656 155.867188 343.992188 155.761719 C 343.882812 155.652344 343.800781 155.527344 343.742188 155.386719 C 343.683594 155.246094 343.652344 155.097656 343.652344 154.945312 C 343.652344 154.792969 343.683594 154.644531 343.742188 154.503906 C 343.800781 154.363281 343.882812 154.238281 343.992188 154.132812 C 344.097656 154.023438 344.222656 153.941406 344.363281 153.882812 C 344.503906 153.824219 344.652344 153.792969 344.804688 153.792969 C 344.957031 153.792969 345.105469 153.824219 345.246094 153.882812 C 345.386719 153.941406 345.511719 154.023438 345.621094 154.132812 C 345.726562 154.238281 345.8125 154.363281 345.871094 154.503906 C 345.929688 154.644531 345.957031 154.792969 345.957031 154.945312 Z M 345.957031 154.945312 " fill-opacity="1" fill-rule="nonzero"/><path fill="#eda27c" d="M 345.621094 157.148438 C 345.726562 157.257812 345.8125 157.382812 345.871094 157.523438 C 345.929688 157.664062 345.957031 157.8125 345.957031 157.964844 C 345.957031 158.117188 345.929688 158.265625 345.871094 158.40625 C 345.8125 158.546875 345.726562 158.671875 345.621094 158.777344 C 345.511719 158.886719 345.386719 158.96875 345.246094 159.027344 C 345.105469 159.085938 344.957031 159.117188 344.804688 159.117188 C 344.652344 159.117188 344.503906 159.085938 344.363281 159.027344 C 344.222656 158.96875 344.097656 158.886719 343.992188 158.777344 C 343.882812 158.671875 343.800781 158.546875 343.742188 158.40625 C 343.683594 158.265625 343.652344 158.117188 343.652344 157.964844 C 343.652344 157.8125 343.683594 157.664062 343.742188 157.523438 C 343.800781 157.382812 343.882812 157.257812 343.992188 157.148438 C 344.097656 157.042969 344.222656 156.957031 344.363281 156.898438 C 344.503906 156.839844 344.652344 156.8125 344.804688 156.8125 C 344.957031 156.8125 345.105469 156.839844 345.246094 156.898438 C 345.386719 156.957031 345.511719 157.042969 345.621094 157.148438 Z M 345.621094 157.148438 " fill-opacity="1" fill-rule="nonzero"/><path fill="#eda27c" d="M 342.921875 155.640625 C 343.03125 155.75 343.113281 155.875 343.171875 156.015625 C 343.230469 156.15625 343.261719 156.300781 343.261719 156.457031 C 343.261719 156.609375 343.230469 156.753906 343.171875 156.894531 C 343.113281 157.039062 343.03125 157.160156 342.921875 157.269531 C 342.816406 157.378906 342.691406 157.460938 342.550781 157.519531 C 342.410156 157.578125 342.261719 157.605469 342.109375 157.605469 C 341.957031 157.605469 341.808594 157.578125 341.667969 157.519531 C 341.527344 157.460938 341.402344 157.378906 341.292969 157.269531 C 341.1875 157.160156 341.101562 157.039062 341.042969 156.894531 C 340.984375 156.753906 340.957031 156.609375 340.957031 156.457031 C 340.957031 156.300781 340.984375 156.15625 341.042969 156.015625 C 341.101562 155.875 341.1875 155.75 341.292969 155.640625 C 341.402344 155.53125 341.527344 155.449219 341.667969 155.390625 C 341.808594 155.332031 341.957031 155.304688 342.109375 155.304688 C 342.261719 155.304688 342.410156 155.332031 342.550781 155.390625 C 342.691406 155.449219 342.816406 155.53125 342.921875 155.640625 Z M 342.921875 155.640625 " fill-opacity="1" fill-rule="nonzero"/><g fill="#368f0f" fill-opacity="1"><g transform="translate(124.295794, 234.362842)"><g><path d="M 14.613281 0 L 12.492188 -10.945312 L 9.625 -10.945312 L 7.355469 -3.265625 L 5.070312 -10.945312 L 2.207031 -10.945312 L 0.0820312 0 L 2.734375 0 L 4.023438 -7.550781 L 6.164062 0 L 8.53125 0 L 10.671875 -7.550781 L 11.960938 0 Z M 14.613281 0 "/></g></g></g><g fill="#368f0f" fill-opacity="1"><g transform="translate(138.51395, 234.362842)"><g><path d="M 9.414062 -5.488281 C 9.414062 -3.796875 7.886719 -2.253906 6.195312 -2.253906 C 4.507812 -2.253906 2.976562 -3.796875 2.976562 -5.488281 C 2.976562 -7.179688 4.507812 -8.707031 6.195312 -8.707031 C 7.886719 -8.707031 9.414062 -7.179688 9.414062 -5.488281 Z M 11.832031 -5.472656 C 11.832031 -8.5 9.222656 -11.105469 6.195312 -11.105469 C 3.171875 -11.105469 0.5625 -8.5 0.5625 -5.472656 C 0.5625 -2.445312 3.171875 0.160156 6.195312 0.160156 C 9.222656 0.160156 11.832031 -2.445312 11.832031 -5.472656 Z M 11.832031 -5.472656 "/></g></g></g><g fill="#368f0f" fill-opacity="1"><g transform="translate(150.432048, 234.362842)"><g><path d="M 6.246094 -3.203125 C 6.246094 -2.480469 5.632812 -1.882812 4.910156 -1.882812 L 3.378906 -1.882812 L 3.378906 -4.523438 L 4.910156 -4.523438 C 5.632812 -4.523438 6.246094 -3.910156 6.246094 -3.203125 Z M 5.488281 -7.773438 C 5.488281 -7.082031 4.910156 -6.503906 4.21875 -6.503906 L 3.378906 -6.503906 L 3.378906 -9.046875 L 4.21875 -9.046875 C 4.910156 -9.046875 5.488281 -8.480469 5.488281 -7.773438 Z M 8.707031 -3.136719 C 8.707031 -4.621094 7.710938 -5.601562 6.488281 -5.890625 C 7.308594 -6.261719 7.789062 -7.097656 7.789062 -8.207031 C 7.789062 -9.707031 6.597656 -10.945312 4.730469 -10.945312 L 0.964844 -10.945312 L 0.964844 0 L 5.390625 0 C 7.484375 0 8.707031 -1.253906 8.707031 -3.136719 Z M 8.707031 -3.136719 "/></g></g></g><g fill="#368f0f" fill-opacity="1"><g transform="translate(158.827686, 234.362842)"><g><path d="M 3.378906 0 L 3.378906 -10.945312 L 0.964844 -10.945312 L 0.964844 0 Z M 3.378906 0 "/></g></g></g><g fill="#368f0f" fill-opacity="1"><g transform="translate(162.703624, 234.362842)"><g><path d="M 0.964844 0 L 7.308594 0 L 7.308594 -2.1875 L 3.378906 -2.1875 L 3.378906 -10.945312 L 0.964844 -10.945312 Z M 0.964844 0 "/></g></g></g><g fill="#368f0f" fill-opacity="1"><g transform="translate(170.102035, 234.362842)"><g><path d="M 7.308594 -2.1875 L 3.378906 -2.1875 L 3.378906 -4.394531 L 7.144531 -4.394531 L 7.144531 -6.582031 L 3.378906 -6.582031 L 3.378906 -8.757812 L 7.308594 -8.757812 L 7.308594 -10.945312 L 0.964844 -10.945312 L 0.964844 0 L 7.308594 0 Z M 7.308594 -2.1875 "/></g></g></g><g fill="#368f0f" fill-opacity="1"><g transform="translate(205.023275, 234.362842)"><g><path d="M 3.347656 -2.222656 L 3.347656 -8.707031 L 4.070312 -8.707031 C 5.9375 -8.707031 7.195312 -7.292969 7.195312 -5.472656 C 7.195312 -3.652344 5.921875 -2.222656 4.070312 -2.222656 Z M 0.964844 -10.945312 L 0.964844 0 L 4.21875 0 C 7.324219 0 9.65625 -2.382812 9.65625 -5.472656 C 9.65625 -8.5625 7.308594 -10.945312 4.21875 -10.945312 Z M 0.964844 -10.945312 "/></g></g></g><g fill="#368f0f" fill-opacity="1"><g transform="translate(214.769993, 234.362842)"><g><path d="M 7.308594 -2.1875 L 3.378906 -2.1875 L 3.378906 -4.394531 L 7.144531 -4.394531 L 7.144531 -6.582031 L 3.378906 -6.582031 L 3.378906 -8.757812 L 7.308594 -8.757812 L 7.308594 -10.945312 L 0.964844 -10.945312 L 0.964844 0 L 7.308594 0 Z M 7.308594 -2.1875 "/></g></g></g><g fill="#368f0f" fill-opacity="1"><g transform="translate(222.570508, 234.362842)"><g><path d="M 5.617188 -8.757812 L 8.738281 -8.757812 L 8.738281 -10.945312 L 0.0820312 -10.945312 L 0.0820312 -8.757812 L 3.203125 -8.757812 L 3.203125 0 L 5.617188 0 Z M 5.617188 -8.757812 "/></g></g></g><g fill="#368f0f" fill-opacity="1"><g transform="translate(230.917885, 234.362842)"><g><path d="M 6.921875 -4.183594 L 4.152344 -4.183594 L 5.535156 -8.078125 Z M 11.007812 0 L 6.566406 -10.945312 L 4.523438 -10.945312 L 0.0820312 0 L 2.671875 0 L 3.460938 -2.207031 L 7.628906 -2.207031 L 8.417969 0 Z M 11.007812 0 "/></g></g></g><g fill="#368f0f" fill-opacity="1"><g transform="translate(241.533151, 234.362842)"><g><path d="M 3.378906 0 L 3.378906 -10.945312 L 0.964844 -10.945312 L 0.964844 0 Z M 3.378906 0 "/></g></g></g><g fill="#368f0f" fill-opacity="1"><g transform="translate(245.409089, 234.362842)"><g><path d="M 0.964844 0 L 7.308594 0 L 7.308594 -2.1875 L 3.378906 -2.1875 L 3.378906 -10.945312 L 0.964844 -10.945312 Z M 0.964844 0 "/></g></g></g><g fill="#368f0f" fill-opacity="1"><g transform="translate(252.8075, 234.362842)"><g><path d="M 3.378906 0 L 3.378906 -10.945312 L 0.964844 -10.945312 L 0.964844 0 Z M 3.378906 0 "/></g></g></g><g fill="#368f0f" fill-opacity="1"><g transform="translate(256.683439, 234.362842)"><g><path d="M 9.5625 0 L 9.5625 -10.945312 L 7.144531 -10.945312 L 7.144531 -4.121094 L 3.378906 -10.945312 L 0.964844 -10.945312 L 0.964844 0 L 3.378906 0 L 3.378906 -6.824219 L 7.144531 0 Z M 9.5625 0 "/></g></g></g><g fill="#368f0f" fill-opacity="1"><g transform="translate(266.735752, 234.362842)"><g><path d="M 6.4375 -8.851562 C 7.5 -8.851562 8.59375 -8.417969 9.125 -7.257812 L 11.78125 -7.257812 C 11.027344 -9.527344 8.851562 -11.105469 6.4375 -11.105469 C 3.347656 -11.105469 0.804688 -8.5625 0.804688 -5.472656 C 0.804688 -2.382812 3.347656 0.160156 6.4375 0.160156 C 9.5625 0.160156 12.054688 -2.367188 12.054688 -5.472656 L 12.054688 -5.84375 L 6.664062 -5.84375 L 6.664062 -4.023438 L 9.449219 -4.023438 C 8.851562 -2.367188 7.5 -2.027344 6.4375 -2.027344 C 4.699219 -2.027344 3.25 -3.589844 3.25 -5.441406 C 3.25 -7.292969 4.699219 -8.851562 6.4375 -8.851562 Z M 6.4375 -8.851562 "/></g></g></g></svg>