<svg xmlns="http://www.w3.org/2000/svg" xmlns:xlink="http://www.w3.org/1999/xlink" width="500" zoomAndPan="magnify" viewBox="0 0 375 374.999991" height="500" preserveAspectRatio="xMidYMid meet" version="1.0"><defs><g/><clipPath id="84d60c514f"><path d="M 95.042969 156 L 122 156 L 122 179 L 95.042969 179 Z M 95.042969 156 " clip-rule="nonzero"/></clipPath><clipPath id="64f4aa172d"><path d="M 79 161 L 96 161 L 96 178 L 79 178 Z M 79 161 " clip-rule="nonzero"/></clipPath><clipPath id="8de9df24be"><path d="M 79.265625 160.316406 L 96.695312 162.007812 L 95.078125 178.679688 L 77.648438 176.988281 Z M 79.265625 160.316406 " clip-rule="nonzero"/></clipPath><clipPath id="05521dfebc"><path d="M 97.0625 162.042969 L 79.632812 160.351562 L 78.015625 177.023438 L 95.445312 178.714844 Z M 97.0625 162.042969 " clip-rule="nonzero"/></clipPath></defs><g clip-path="url(#84d60c514f)"><path fill="#368f0f" d="M 116.066406 159.667969 C 103.304688 159.609375 96.457031 165.566406 95.867188 177.898438 C 95.859375 178.054688 95.632812 178.0625 95.613281 177.90625 C 95.042969 173.878906 95.152344 170.207031 96.175781 167.015625 C 99.550781 156.480469 112.425781 155.097656 121.5625 158.433594 C 122.015625 158.597656 122.109375 159.1875 121.730469 159.488281 C 114.605469 165.1875 115.574219 180.738281 98.230469 173.996094 C 100.941406 165.578125 106.492188 160.363281 116.066406 159.667969 " fill-opacity="1" fill-rule="evenodd"/></g><g clip-path="url(#64f4aa172d)"><g clip-path="url(#8de9df24be)"><g clip-path="url(#05521dfebc)"><path fill="#368f0f" d="M 82.949219 163.707031 C 91.34375 164.484375 95.464844 168.835938 95.066406 176.984375 C 95.0625 177.085938 95.210938 177.105469 95.234375 177.007812 C 95.863281 174.394531 96.027344 171.972656 95.558594 169.808594 C 94.007812 162.664062 85.632812 160.933594 79.410156 162.542969 C 79.101562 162.625 79.003906 163.003906 79.234375 163.226562 C 83.554688 167.429688 81.925781 177.59375 93.761719 174.269531 C 92.515625 168.558594 89.195312 164.773438 82.949219 163.707031 " fill-opacity="1" fill-rule="evenodd"/></g></g></g><path stroke-linecap="butt" transform="matrix(0.761385, 0, 0, 0.761385, 13.367675, 154.380283)" fill="none" stroke-linejoin="miter" d="M 14.446723 97.887289 C 17.961085 106.326889 24.240763 101.509391 25.646508 94.916755 C 26.713643 89.991518 26.821383 84.861062 26.923992 79.858867 C 27.026601 76.862681 26.482773 73.343189 27.13434 70.347002 C 27.888517 66.83264 27.678169 67.899775 31.089922 66.622291 C 40.263177 63.210538 48.677124 56.074074 51.77592 46.562209 C 57.014115 30.02162 39.950219 22.541415 26.375033 27.364044 C 25.410507 24.260118 21.793536 20.956104 18.274043 22.541415 C 14.549332 24.157509 13.374458 31.088754 12.72289 34.603117 C 10.901578 45.597684 10.69123 57.141209 11.137579 68.110124 C 11.240188 74.102496 11.763495 79.961477 12.415063 85.825588 C 12.933239 89.67856 12.83063 94.265187 14.446723 97.887289 Z M 27.549907 50.938488 L 27.549907 49.973962 C 27.678169 46.249251 26.821383 40.805838 29.371219 38.35861 C 30.961661 36.845126 34.819763 35.362424 35.779159 37.912261 C 37.164382 41.431753 29.371219 49.117176 27.549907 50.938488 Z M 66.084761 66.206725 C 72.15409 67.273859 79.213597 65.452548 83.692485 60.968529 C 87.417196 57.243818 89.243639 44.114982 80.280732 47.942302 C 78.038723 48.906828 66.500328 60.655571 67.049287 51.046228 C 67.357114 45.495074 72.256699 46.664818 76.114802 45.910641 C 79.942122 45.182117 84.318401 44.012373 87.001629 41.016186 C 92.758001 34.500508 87.001629 25.434992 79.839513 23.300723 C 73.010876 21.263932 65.120235 24.157509 60.430999 29.159703 C 51.026873 39.087135 49.226083 63.210538 66.084761 66.206725 Z M 73.118616 39.189744 C 74.28836 36.634777 76.740718 35.465033 79.423946 35.8806 C 80.383341 38.122609 75.252886 39.943921 73.118616 39.189744 Z M 122.427427 70.895961 C 128.188929 72.065705 127.014054 63.00019 126.911445 59.798785 L 126.259877 39.738703 C 126.049529 33.535982 124.330826 31.401712 121.021682 26.604736 C 113.469651 15.717909 100.858991 22.125848 94.99488 31.293973 C 90.203034 38.876786 88.068764 50.39466 92.209042 58.83426 C 97.760195 69.931435 111.643209 65.657766 117.712538 57.346427 C 117.820278 60.763311 117.609929 69.828826 122.427427 70.895961 Z M 108.857371 46.772558 C 105.676489 46.664818 106.092056 43.802024 106.851363 41.560015 C 107.682497 39.292353 110.160507 35.362424 112.397386 34.500508 C 115.814269 33.120415 116.881404 36.32695 115.475659 39.425745 C 114.742004 41.324014 111.43286 46.875167 108.857371 46.772558 Z M 138.839755 70.685612 C 144.729518 72.173445 152.17894 67.689426 155.067387 62.55897 C 157.858355 57.972343 156.555219 42.601497 149.311015 52.42632 C 146.966397 53.934674 141.625593 63.420887 139.178365 56.387032 C 136.936356 49.973962 146.525178 37.055475 151.553025 35.254685 C 153.482076 43.253065 164.240642 40.595489 161.270108 32.807457 C 160.515931 25.019425 152.071201 22.541415 145.458043 23.844551 C 138.213839 25.332383 133.185993 29.811271 130.11285 36.532168 C 125.83918 45.910641 126.465096 67.586817 138.839755 70.685612 Z M 198.712174 83.819579 C 201.498012 81.449309 200.092267 74.518063 200.092267 71.521877 C 199.881918 65.13959 200.323138 54.8992 196.680514 49.219785 C 191.57058 41.560015 183.546547 48.388652 179.067659 52.867539 C 180.134794 45.597684 180.370795 38.122609 180.786362 30.775797 C 181.201929 23.403332 184.300724 14.881645 182.920631 7.616919 C 181.648278 1.650199 174.270683 -0.0685037 170.756321 5.37491 C 167.549786 10.274495 166.693 17.749569 165.728474 23.403332 C 163.486465 35.675382 160.828889 51.046228 163.589074 63.313147 C 166.898218 78.478775 179.924445 66.622291 186.229775 61.076269 C 191.23197 66.104115 188.682133 74.620672 191.678319 80.510435 C 193.058412 83.168012 195.715988 86.266807 198.712174 83.819579 Z M 239.263297 115.705362 C 242.572441 111.329083 242.023482 105.572712 241.818264 100.437126 C 241.505306 95.121974 241.920873 89.575951 241.818264 84.132537 C 241.818264 72.065705 241.505306 59.901394 240.64339 47.839693 C 240.438172 43.904633 241.402697 35.465033 237.231637 33.120415 C 233.717274 31.191364 231.264917 34.290159 229.233256 36.845126 C 227.411944 39.189744 218.449038 59.383218 216.001811 47.839693 C 215.037285 43.253065 216.10442 37.707042 217.068945 33.223024 C 218.033471 29.159703 221.9634 22.777416 217.484512 19.570881 C 208.106039 12.747375 202.554886 30.673188 201.59036 36.429559 C 200.318007 44.740897 201.046532 55.001809 205.212462 62.456361 C 209.69648 70.685612 219.618782 73.13797 226.786029 66.309334 C 224.646629 73.450928 225.611154 123.493394 239.263297 115.705362 Z M 277.869977 70.685612 C 283.759741 72.173445 291.209162 67.689426 294.102739 62.55897 C 296.888577 57.972343 295.590572 42.601497 288.346368 52.42632 C 286.00175 53.934674 280.660945 63.420887 278.213718 56.387032 C 275.971709 49.973962 285.5554 37.055475 290.588377 35.254685 C 292.512298 43.253065 303.275994 40.595489 300.305461 32.807457 C 299.546153 25.019425 291.106553 22.541415 284.488265 23.844551 C 277.249192 25.332383 272.221345 29.811271 269.143072 36.532168 C 264.874533 45.910641 265.495318 67.586817 277.869977 70.685612 Z M 307.754882 85.928197 C 313.203426 92.130918 317.892663 82.855054 317.682314 78.268426 C 317.164138 64.175064 314.48091 45.392465 317.682314 29.498313 C 318.749449 24.157509 324.716169 5.061952 317.579705 2.168375 C 302.963037 -3.06469 302.860428 26.712476 302.311469 33.535982 C 301.141725 48.491261 300.618418 78.032425 307.754882 85.928197 Z M 336.464913 66.206725 C 342.539373 67.273859 349.59888 65.452548 354.077768 60.968529 C 357.802479 57.243818 359.628921 44.114982 350.666015 47.942302 C 348.424006 48.906828 336.885611 60.655571 337.429439 51.046228 C 337.742397 45.495074 342.641982 46.664818 346.494954 45.910641 C 350.327405 45.182117 354.703684 44.012373 357.386912 41.016186 C 363.143283 34.500508 357.386912 25.434992 350.224796 23.300723 C 343.396159 21.263932 335.500387 24.157509 330.811151 29.159703 C 321.407025 39.087135 319.611366 63.210538 336.464913 66.206725 Z M 343.498768 39.189744 C 344.673642 36.634777 347.12087 35.465033 349.804098 35.8806 C 350.768624 38.122609 345.638168 39.943921 343.498768 39.189744 Z M 392.812709 70.895961 C 398.569081 72.065705 397.399337 63.00019 397.296728 59.798785 L 396.64516 39.738703 C 396.434811 33.535982 394.716109 31.401712 391.406964 26.604736 C 383.849803 15.717909 371.244273 22.125848 365.380162 31.293973 C 360.588316 38.876786 358.448916 50.39466 362.594325 58.83426 C 368.140347 69.931435 382.028491 65.657766 388.09782 57.346427 C 388.20043 60.763311 387.995211 69.828826 392.812709 70.895961 Z M 379.242654 46.772558 C 376.061771 46.664818 376.477338 43.802024 377.236646 41.560015 C 378.067779 39.292353 380.540659 35.362424 382.782668 34.500508 C 386.194421 33.120415 387.266687 36.32695 385.855811 39.425745 C 385.127287 41.324014 381.818143 46.875167 379.242654 46.772558 Z M 437.935068 78.371035 C 443.378482 84.989323 446.477277 77.719467 446.477277 72.378663 C 446.477277 61.620097 445.620491 48.152651 440.931255 38.122609 C 435.169753 25.850559 422.564223 28.641527 414.145145 36.845126 C 414.042536 31.842931 412.323833 16.887653 404.97702 25.019425 C 400.051783 30.334577 398.882039 39.630963 398.461341 46.562209 C 398.020122 53.077888 397.394206 63.313147 402.396401 68.448734 C 409.353299 75.585198 412.534182 65.242199 412.765052 59.588437 C 412.765052 55.627725 412.323833 54.247632 415.422628 51.354055 C 417.664637 49.117176 420.322213 46.772558 423.631357 46.4596 C 429.51599 45.910641 430.352255 51.590056 431.209041 56.074074 C 432.486524 62.897581 433.245832 72.825013 437.935068 78.371035 Z M 437.935068 78.371035 " stroke="#ffffff" stroke-width="8.003325" stroke-opacity="1" stroke-miterlimit="4"/><g fill="#eda27c" fill-opacity="1"><g transform="translate(20.458069, 208.438589)"><g><path d="M 3.898438 20.472656 C 6.582031 26.894531 11.375 23.238281 12.429688 18.199219 C 13.242188 14.460938 13.324219 10.5625 13.40625 6.742188 C 13.488281 4.46875 13.082031 1.789062 13.566406 -0.488281 C 14.136719 -3.167969 13.972656 -2.355469 16.574219 -3.332031 C 23.5625 -5.929688 29.980469 -11.375 32.335938 -18.605469 C 36.316406 -31.199219 23.316406 -36.886719 13 -33.230469 C 12.269531 -35.585938 9.507812 -38.105469 6.824219 -36.886719 C 3.980469 -35.667969 3.085938 -30.386719 2.601562 -27.707031 C 1.21875 -19.335938 1.054688 -10.5625 1.382812 -2.195312 C 1.460938 2.355469 1.867188 6.824219 2.355469 11.292969 C 2.761719 14.21875 2.679688 17.710938 3.898438 20.472656 Z M 13.894531 -15.273438 L 13.894531 -16.003906 C 13.972656 -18.847656 13.324219 -22.992188 15.273438 -24.863281 C 16.492188 -26 19.417969 -27.136719 20.148438 -25.1875 C 21.207031 -22.503906 15.273438 -16.65625 13.894531 -15.273438 Z M 13.894531 -15.273438 "/></g></g></g><g fill="#eda27c" fill-opacity="1"><g transform="translate(52.792261, 208.438589)"><g><path d="M 10.886719 -3.65625 C 15.519531 -2.84375 20.878906 -4.226562 24.292969 -7.636719 C 27.136719 -10.480469 28.519531 -20.472656 21.691406 -17.550781 C 19.988281 -16.816406 11.210938 -7.882812 11.617188 -15.191406 C 11.863281 -19.417969 15.597656 -18.523438 18.523438 -19.09375 C 21.449219 -19.660156 24.78125 -20.554688 26.8125 -22.832031 C 31.199219 -27.785156 26.8125 -34.691406 21.367188 -36.316406 C 16.167969 -37.859375 10.15625 -35.667969 6.582031 -31.847656 C -0.570312 -24.292969 -1.949219 -5.929688 10.886719 -3.65625 Z M 16.25 -24.210938 C 17.144531 -26.160156 19.011719 -27.054688 21.042969 -26.730469 C 21.773438 -25.023438 17.875 -23.644531 16.25 -24.210938 Z M 16.25 -24.210938 "/></g></g></g><g fill="#eda27c" fill-opacity="1"><g transform="translate(80.65814, 208.438589)"><g><path d="M 25.917969 -0.0820312 C 30.304688 0.8125 29.410156 -6.09375 29.332031 -8.53125 L 28.84375 -23.804688 C 28.679688 -28.519531 27.378906 -30.144531 24.863281 -33.800781 C 19.09375 -42.085938 9.507812 -37.210938 5.039062 -30.222656 C 1.382812 -24.457031 -0.242188 -15.679688 2.925781 -9.261719 C 7.148438 -0.8125 17.710938 -4.0625 22.34375 -10.398438 C 22.425781 -7.800781 22.261719 -0.894531 25.917969 -0.0820312 Z M 15.597656 -18.441406 C 13.160156 -18.523438 13.488281 -20.71875 14.054688 -22.425781 C 14.707031 -24.128906 16.574219 -27.136719 18.28125 -27.785156 C 20.878906 -28.84375 21.691406 -26.40625 20.636719 -24.050781 C 20.066406 -22.585938 17.550781 -18.363281 15.597656 -18.441406 Z M 15.597656 -18.441406 "/></g></g></g><g fill="#eda27c" fill-opacity="1"><g transform="translate(109.417684, 208.438589)"><g><path d="M 9.667969 -0.242188 C 14.136719 0.894531 19.824219 -2.519531 22.019531 -6.417969 C 24.128906 -9.914062 23.15625 -21.613281 17.628906 -14.136719 C 15.84375 -13 11.78125 -5.769531 9.914062 -11.132812 C 8.207031 -16.003906 15.519531 -25.835938 19.335938 -27.21875 C 20.800781 -21.125 29.003906 -23.15625 26.730469 -29.085938 C 26.160156 -35.019531 19.742188 -36.886719 14.707031 -35.910156 C 9.179688 -34.773438 5.363281 -31.363281 3.007812 -26.242188 C -0.242188 -19.09375 0.242188 -2.601562 9.667969 -0.242188 Z M 9.667969 -0.242188 "/></g></g></g><g fill="#eda27c" fill-opacity="1"><g transform="translate(135.821207, 208.438589)"><g><path d="M 28.84375 9.75 C 30.957031 7.960938 29.898438 2.679688 29.898438 0.40625 C 29.738281 -4.46875 30.0625 -12.269531 27.300781 -16.574219 C 23.398438 -22.425781 17.304688 -17.222656 13.894531 -13.8125 C 14.707031 -19.335938 14.867188 -25.023438 15.191406 -30.628906 C 15.519531 -36.234375 17.875 -42.734375 16.816406 -48.261719 C 15.84375 -52.8125 10.238281 -54.109375 7.554688 -49.96875 C 5.117188 -46.230469 4.46875 -40.542969 3.738281 -36.234375 C 2.03125 -26.894531 0 -15.191406 2.113281 -5.851562 C 4.632812 5.6875 14.542969 -3.332031 19.335938 -7.554688 C 23.15625 -3.738281 21.207031 2.761719 23.480469 7.230469 C 24.535156 9.261719 26.566406 11.617188 28.84375 9.75 Z M 28.84375 9.75 "/></g></g></g><g fill="#eda27c" fill-opacity="1"><g transform="translate(165.230685, 208.438589)"><g><path d="M 30.304688 34.042969 C 32.824219 30.710938 32.417969 26.324219 32.253906 22.425781 C 32.011719 18.363281 32.335938 14.136719 32.253906 9.992188 C 32.253906 0.8125 32.011719 -8.449219 31.363281 -17.628906 C 31.199219 -20.636719 31.929688 -27.054688 28.761719 -28.84375 C 26.082031 -30.304688 24.210938 -27.949219 22.667969 -26 C 21.285156 -24.210938 14.460938 -8.855469 12.59375 -17.628906 C 11.863281 -21.125 12.675781 -25.347656 13.40625 -28.761719 C 14.136719 -31.847656 17.144531 -36.722656 13.730469 -39.160156 C 6.582031 -44.359375 2.355469 -30.710938 1.625 -26.324219 C 0.648438 -19.988281 1.21875 -12.1875 4.386719 -6.5 C 7.800781 -0.242188 15.355469 1.625 20.800781 -3.574219 C 19.175781 1.867188 19.90625 39.972656 30.304688 34.042969 Z M 30.304688 34.042969 "/></g></g></g><g fill="#eda27c" fill-opacity="1"><g transform="translate(196.914942, 208.438589)"><g/></g></g><g fill="#eda27c" fill-opacity="1"><g transform="translate(215.275503, 208.438589)"><g><path d="M 9.667969 -0.242188 C 14.136719 0.894531 19.824219 -2.519531 22.019531 -6.417969 C 24.128906 -9.914062 23.15625 -21.613281 17.628906 -14.136719 C 15.84375 -13 11.78125 -5.769531 9.914062 -11.132812 C 8.207031 -16.003906 15.519531 -25.835938 19.335938 -27.21875 C 20.800781 -21.125 29.003906 -23.15625 26.730469 -29.085938 C 26.160156 -35.019531 19.742188 -36.886719 14.707031 -35.910156 C 9.179688 -34.773438 5.363281 -31.363281 3.007812 -26.242188 C -0.242188 -19.09375 0.242188 -2.601562 9.667969 -0.242188 Z M 9.667969 -0.242188 "/></g></g></g><g fill="#eda27c" fill-opacity="1"><g transform="translate(241.679026, 208.438589)"><g><path d="M 6.011719 11.375 C 10.15625 16.085938 13.730469 9.019531 13.566406 5.523438 C 13.160156 -5.199219 11.132812 -19.5 13.566406 -31.605469 C 14.378906 -35.667969 18.929688 -50.210938 13.488281 -52.40625 C 2.355469 -56.386719 2.273438 -33.71875 1.867188 -28.519531 C 0.976562 -17.144531 0.570312 5.363281 6.011719 11.375 Z M 6.011719 11.375 "/></g></g></g><g fill="#eda27c" fill-opacity="1"><g transform="translate(258.658474, 208.438589)"><g><path d="M 10.886719 -3.65625 C 15.519531 -2.84375 20.878906 -4.226562 24.292969 -7.636719 C 27.136719 -10.480469 28.519531 -20.472656 21.691406 -17.550781 C 19.988281 -16.816406 11.210938 -7.882812 11.617188 -15.191406 C 11.863281 -19.417969 15.597656 -18.523438 18.523438 -19.09375 C 21.449219 -19.660156 24.78125 -20.554688 26.8125 -22.832031 C 31.199219 -27.785156 26.8125 -34.691406 21.367188 -36.316406 C 16.167969 -37.859375 10.15625 -35.667969 6.582031 -31.847656 C -0.570312 -24.292969 -1.949219 -5.929688 10.886719 -3.65625 Z M 16.25 -24.210938 C 17.144531 -26.160156 19.011719 -27.054688 21.042969 -26.730469 C 21.773438 -25.023438 17.875 -23.644531 16.25 -24.210938 Z M 16.25 -24.210938 "/></g></g></g><g fill="#eda27c" fill-opacity="1"><g transform="translate(286.524341, 208.438589)"><g><path d="M 25.917969 -0.0820312 C 30.304688 0.8125 29.410156 -6.09375 29.332031 -8.53125 L 28.84375 -23.804688 C 28.679688 -28.519531 27.378906 -30.144531 24.863281 -33.800781 C 19.09375 -42.085938 9.507812 -37.210938 5.039062 -30.222656 C 1.382812 -24.457031 -0.242188 -15.679688 2.925781 -9.261719 C 7.148438 -0.8125 17.710938 -4.0625 22.34375 -10.398438 C 22.425781 -7.800781 22.261719 -0.894531 25.917969 -0.0820312 Z M 15.597656 -18.441406 C 13.160156 -18.523438 13.488281 -20.71875 14.054688 -22.425781 C 14.707031 -24.128906 16.574219 -27.136719 18.28125 -27.785156 C 20.878906 -28.84375 21.691406 -26.40625 20.636719 -24.050781 C 20.066406 -22.585938 17.550781 -18.363281 15.597656 -18.441406 Z M 15.597656 -18.441406 "/></g></g></g><g fill="#eda27c" fill-opacity="1"><g transform="translate(315.283897, 208.438589)"><g><path d="M 31.523438 5.605469 C 35.667969 10.644531 38.023438 5.117188 38.023438 1.054688 C 38.023438 -7.148438 37.375 -17.386719 33.800781 -25.023438 C 29.410156 -34.367188 19.824219 -32.253906 13.40625 -26 C 13.324219 -29.816406 12.023438 -41.191406 6.417969 -35.019531 C 2.679688 -30.957031 1.789062 -23.886719 1.460938 -18.605469 C 1.136719 -13.648438 0.648438 -5.851562 4.46875 -1.949219 C 9.75 3.492188 12.1875 -4.386719 12.347656 -8.695312 C 12.347656 -11.699219 12.023438 -12.753906 14.378906 -14.949219 C 16.085938 -16.65625 18.117188 -18.441406 20.636719 -18.6875 C 25.105469 -19.09375 25.753906 -14.785156 26.40625 -11.375 C 27.378906 -6.175781 27.949219 1.382812 31.523438 5.605469 Z M 31.523438 5.605469 "/></g></g></g><g fill="#368f0f" fill-opacity="1"><g transform="translate(124.295875, 237.149707)"><g><path d="M 14.613281 0 L 12.492188 -10.945312 L 9.625 -10.945312 L 7.355469 -3.265625 L 5.070312 -10.945312 L 2.207031 -10.945312 L 0.0820312 0 L 2.734375 0 L 4.023438 -7.550781 L 6.164062 0 L 8.53125 0 L 10.671875 -7.550781 L 11.960938 0 Z M 14.613281 0 "/></g></g></g><g fill="#368f0f" fill-opacity="1"><g transform="translate(138.514032, 237.149707)"><g><path d="M 9.414062 -5.488281 C 9.414062 -3.796875 7.886719 -2.253906 6.195312 -2.253906 C 4.507812 -2.253906 2.976562 -3.796875 2.976562 -5.488281 C 2.976562 -7.179688 4.507812 -8.707031 6.195312 -8.707031 C 7.886719 -8.707031 9.414062 -7.179688 9.414062 -5.488281 Z M 11.832031 -5.472656 C 11.832031 -8.5 9.222656 -11.105469 6.195312 -11.105469 C 3.171875 -11.105469 0.5625 -8.5 0.5625 -5.472656 C 0.5625 -2.445312 3.171875 0.160156 6.195312 0.160156 C 9.222656 0.160156 11.832031 -2.445312 11.832031 -5.472656 Z M 11.832031 -5.472656 "/></g></g></g><g fill="#368f0f" fill-opacity="1"><g transform="translate(150.43213, 237.149707)"><g><path d="M 6.246094 -3.203125 C 6.246094 -2.480469 5.632812 -1.882812 4.910156 -1.882812 L 3.378906 -1.882812 L 3.378906 -4.523438 L 4.910156 -4.523438 C 5.632812 -4.523438 6.246094 -3.910156 6.246094 -3.203125 Z M 5.488281 -7.773438 C 5.488281 -7.082031 4.910156 -6.503906 4.21875 -6.503906 L 3.378906 -6.503906 L 3.378906 -9.046875 L 4.21875 -9.046875 C 4.910156 -9.046875 5.488281 -8.480469 5.488281 -7.773438 Z M 8.707031 -3.136719 C 8.707031 -4.621094 7.710938 -5.601562 6.488281 -5.890625 C 7.308594 -6.261719 7.789062 -7.097656 7.789062 -8.207031 C 7.789062 -9.707031 6.597656 -10.945312 4.730469 -10.945312 L 0.964844 -10.945312 L 0.964844 0 L 5.390625 0 C 7.484375 0 8.707031 -1.253906 8.707031 -3.136719 Z M 8.707031 -3.136719 "/></g></g></g><g fill="#368f0f" fill-opacity="1"><g transform="translate(158.827767, 237.149707)"><g><path d="M 3.378906 0 L 3.378906 -10.945312 L 0.964844 -10.945312 L 0.964844 0 Z M 3.378906 0 "/></g></g></g><g fill="#368f0f" fill-opacity="1"><g transform="translate(162.703706, 237.149707)"><g><path d="M 0.964844 0 L 7.308594 0 L 7.308594 -2.1875 L 3.378906 -2.1875 L 3.378906 -10.945312 L 0.964844 -10.945312 Z M 0.964844 0 "/></g></g></g><g fill="#368f0f" fill-opacity="1"><g transform="translate(170.102117, 237.149707)"><g><path d="M 7.308594 -2.1875 L 3.378906 -2.1875 L 3.378906 -4.394531 L 7.144531 -4.394531 L 7.144531 -6.582031 L 3.378906 -6.582031 L 3.378906 -8.757812 L 7.308594 -8.757812 L 7.308594 -10.945312 L 0.964844 -10.945312 L 0.964844 0 L 7.308594 0 Z M 7.308594 -2.1875 "/></g></g></g><g fill="#368f0f" fill-opacity="1"><g transform="translate(205.023275, 237.150526)"><g><path d="M 3.347656 -2.222656 L 3.347656 -8.707031 L 4.070312 -8.707031 C 5.9375 -8.707031 7.195312 -7.292969 7.195312 -5.472656 C 7.195312 -3.652344 5.921875 -2.222656 4.070312 -2.222656 Z M 0.964844 -10.945312 L 0.964844 0 L 4.21875 0 C 7.324219 0 9.65625 -2.382812 9.65625 -5.472656 C 9.65625 -8.5625 7.308594 -10.945312 4.21875 -10.945312 Z M 0.964844 -10.945312 "/></g></g></g><g fill="#368f0f" fill-opacity="1"><g transform="translate(214.769993, 237.150526)"><g><path d="M 7.308594 -2.1875 L 3.378906 -2.1875 L 3.378906 -4.394531 L 7.144531 -4.394531 L 7.144531 -6.582031 L 3.378906 -6.582031 L 3.378906 -8.757812 L 7.308594 -8.757812 L 7.308594 -10.945312 L 0.964844 -10.945312 L 0.964844 0 L 7.308594 0 Z M 7.308594 -2.1875 "/></g></g></g><g fill="#368f0f" fill-opacity="1"><g transform="translate(222.570508, 237.150526)"><g><path d="M 5.617188 -8.757812 L 8.738281 -8.757812 L 8.738281 -10.945312 L 0.0820312 -10.945312 L 0.0820312 -8.757812 L 3.203125 -8.757812 L 3.203125 0 L 5.617188 0 Z M 5.617188 -8.757812 "/></g></g></g><g fill="#368f0f" fill-opacity="1"><g transform="translate(230.917885, 237.150526)"><g><path d="M 6.921875 -4.183594 L 4.152344 -4.183594 L 5.535156 -8.078125 Z M 11.007812 0 L 6.566406 -10.945312 L 4.523438 -10.945312 L 0.0820312 0 L 2.671875 0 L 3.460938 -2.207031 L 7.628906 -2.207031 L 8.417969 0 Z M 11.007812 0 "/></g></g></g><g fill="#368f0f" fill-opacity="1"><g transform="translate(241.533151, 237.150526)"><g><path d="M 3.378906 0 L 3.378906 -10.945312 L 0.964844 -10.945312 L 0.964844 0 Z M 3.378906 0 "/></g></g></g><g fill="#368f0f" fill-opacity="1"><g transform="translate(245.409089, 237.150526)"><g><path d="M 0.964844 0 L 7.308594 0 L 7.308594 -2.1875 L 3.378906 -2.1875 L 3.378906 -10.945312 L 0.964844 -10.945312 Z M 0.964844 0 "/></g></g></g><g fill="#368f0f" fill-opacity="1"><g transform="translate(252.8075, 237.150526)"><g><path d="M 3.378906 0 L 3.378906 -10.945312 L 0.964844 -10.945312 L 0.964844 0 Z M 3.378906 0 "/></g></g></g><g fill="#368f0f" fill-opacity="1"><g transform="translate(256.683439, 237.150526)"><g><path d="M 9.5625 0 L 9.5625 -10.945312 L 7.144531 -10.945312 L 7.144531 -4.121094 L 3.378906 -10.945312 L 0.964844 -10.945312 L 0.964844 0 L 3.378906 0 L 3.378906 -6.824219 L 7.144531 0 Z M 9.5625 0 "/></g></g></g><g fill="#368f0f" fill-opacity="1"><g transform="translate(266.735752, 237.150526)"><g><path d="M 6.4375 -8.851562 C 7.5 -8.851562 8.59375 -8.417969 9.125 -7.257812 L 11.78125 -7.257812 C 11.027344 -9.527344 8.851562 -11.105469 6.4375 -11.105469 C 3.347656 -11.105469 0.804688 -8.5625 0.804688 -5.472656 C 0.804688 -2.382812 3.347656 0.160156 6.4375 0.160156 C 9.5625 0.160156 12.054688 -2.367188 12.054688 -5.472656 L 12.054688 -5.84375 L 6.664062 -5.84375 L 6.664062 -4.023438 L 9.449219 -4.023438 C 8.851562 -2.367188 7.5 -2.027344 6.4375 -2.027344 C 4.699219 -2.027344 3.25 -3.589844 3.25 -5.441406 C 3.25 -7.292969 4.699219 -8.851562 6.4375 -8.851562 Z M 6.4375 -8.851562 "/></g></g></g></svg>